<svg xmlns="http://www.w3.org/2000/svg" viewBox="0 0 417.36 190.99"><defs><style>.\34 792e9ff-5482-4f18-9d87-ad14ce3ceffb{font-size:33.23px;font-family:STIXGeneral-Regular, STIXGeneral;}.\34 792e9ff-5482-4f18-9d87-ad14ce3ceffb,.\39 e2ba04a-8b59-4528-a35a-9b1aa6de50d5{fill:#fff;}.\37 370462c-36a4-454b-96c8-e6140d88f66c{letter-spacing:0.02em;}.c874d84a-9d69-4372-89a5-691d28fe614d{letter-spacing:0.02em;}.d2cce02a-a78c-42cb-a993-b4896ea1d16b{letter-spacing:0.02em;}.\39 10a6cb7-aeb7-4b6e-b9a2-637af225a25c{letter-spacing:0em;}.\32 be4c26f-5ce3-4322-9de3-1c00bd6e9147{letter-spacing:0.02em;}.\39 345031d-29e4-48bd-a83b-7f88a44420ba{letter-spacing:0.04em;}.be540db6-7bd6-42a7-94d1-1079f9d31136{letter-spacing:-0.04em;}.d2806a1d-5b03-4d57-aef4-508713a97495{letter-spacing:0.02em;}</style></defs><title>logo_banco</title><g id="36606ae5-10fd-40a1-ad49-2273affdaa26" data-name="Capa 3"><text class="4792e9ff-5482-4f18-9d87-ad14ce3ceffb" transform="translate(202.55 39.67)"><tspan class="7370462c-36a4-454b-96c8-e6140d88f66c">B<tspan class="c874d84a-9d69-4372-89a5-691d28fe614d" x="22.83" y="0">A</tspan><tspan class="d2cce02a-a78c-42cb-a993-b4896ea1d16b" x="47.45" y="0">N</tspan><tspan class="910a6cb7-aeb7-4b6e-b9a2-637af225a25c" x="72.11" y="0">C</tspan><tspan class="c874d84a-9d69-4372-89a5-691d28fe614d" x="94.24" y="0">O</tspan><tspan x="0" y="35.61">CENT</tspan><tspan class="2be4c26f-5ce3-4322-9de3-1c00bd6e9147" x="89.42" y="35.61">R</tspan><tspan class="c874d84a-9d69-4372-89a5-691d28fe614d" x="112.39" y="35.61">A</tspan><tspan class="d2cce02a-a78c-42cb-a993-b4896ea1d16b" x="137.01" y="35.61">L</tspan><tspan x="0" y="71.21">DE RESE</tspan><tspan class="9345031d-29e4-48bd-a83b-7f88a44420ba" x="138.51" y="71.21">R</tspan><tspan class="be540db6-7bd6-42a7-94d1-1079f9d31136" x="161.87" y="71.21">V</tspan><tspan x="184.67" y="71.21">A</tspan></tspan><tspan class="7370462c-36a4-454b-96c8-e6140d88f66c" x="0" y="106.82">DEL PE</tspan><tspan class="d2806a1d-5b03-4d57-aef4-508713a97495" x="115.71" y="106.82">R</tspan><tspan x="138.51" y="106.82">Ú</tspan></text><path class="9e2ba04a-8b59-4528-a35a-9b1aa6de50d5" d="M35.1,104.35V77a32.54,32.54,0,0,0-2.81,13.49,34.55,34.55,0,0,0,2.81,13.86M56.68,142.7A18.41,18.41,0,0,0,59.45,140c-2.91-.67-5.65-1.41-8.25-2.22a14.65,14.65,0,0,0,5.48,5m4.11-105a17.42,17.42,0,0,0-6.62-7.38A59.93,59.93,0,0,0,32.94,43a17.72,17.72,0,0,1,4.29,6.57,85.73,85.73,0,0,1,17.24-6.93,21.74,21.74,0,0,1,6.32-4.89m.32,99.77a17.41,17.41,0,0,0,2-6.68,69.07,69.07,0,0,1-13.9-6.58c0,3.31-.39,6.85.5,10.1a105.09,105.09,0,0,0,11.4,3.16m.82-96.77c0-.11-.06-.22-.1-.33-.34.18-.67.37-1,.58l1.1-.25m1.23,35.24c0-7.5,0-15,0-22.29a65.29,65.29,0,0,0-13.6,6.93,26.59,26.59,0,0,0-.28,3.05c-.27,8.3,0,12.58,0,16.7a79.67,79.67,0,0,0,13.89-4.39M61.9,51.11l1.26-.47a42.58,42.58,0,0,0-.59-7.23c-11.12,2.44-21.68,6.37-30.21,12.52-12,8.67-18.21,20.65-18.21,34.56,0,13.09,4.89,24.56,15.57,33.21a19,19,0,0,0,5.38-13A36.75,36.75,0,0,1,29.23,90.5a35.25,35.25,0,0,1,5.7-19.45C41,61.7,51.06,55.21,61.9,51.11m1.3,76.72c.18-13.25.09-27.21,0-41.19a20.09,20.09,0,0,0-7-.08,24.55,24.55,0,0,0-7,2.53c-.06,6.41,0,20.63-.05,31.66a63.6,63.6,0,0,0,14,7.08m16.86,4.4c0-10.64-.53-21.45-2.65-31.94a17,17,0,0,0-3.08-6.89c0,9.28,0,19,.6,28.22a50.56,50.56,0,0,0,1.59,9.95c1.16.24,2.35.45,3.54.66m2.5-86.29a13.21,13.21,0,0,0-4.4-5l-2.07.23a24.3,24.3,0,0,0-.51,3.68c-.07.78-.14,1.57-.2,2.35,2.37-.5,4.77-.91,7.18-1.25m1.11,7a11.56,11.56,0,0,0-.16-4.32c-2.83.38-5.62.87-8.35,1.48-.46,6.41-.71,12.74-.8,19.11A25.92,25.92,0,0,0,83.67,53m8.72,103.84c.48-.22,0-1.53-.55-2.9-1.5-3.46-3-6.51-3.87-10.24-1.11-.05-2.2-.12-3.28-.19.53,1.83,4.47,14.81,7.7,13.33m1.34-15.71c-.4-.62-.8-1.28-1.2-2a16.08,16.08,0,0,0,2.66-2.55,126.27,126.27,0,0,1-17.76-2,39.13,39.13,0,0,0,2.51,5.73c4.69.43,9.32.67,13.79.78m.64-87.26c1.45-9.66-4.16-19-13.17-23.46a29.24,29.24,0,0,0-3.89,6.86c6.44,2.85,10.41,9.3,9.39,16.1C84.06,70.84,67.26,79.11,50,83l-3.8.86V80.32c0-2.25-.07-4.49-.1-6.74q-.06-5,.1-10c0-.18,0-.35,0-.52a41.13,41.13,0,0,0-8.09,8.57l0,41.66c-1.05,7-5.79,13.42-12.27,17.18a23.9,23.9,0,0,0,26.43,12.8,16.26,16.26,0,0,1-6.17-13c.14-13.72,0-27.44.1-41.15V87.45l1.55-.78a27.29,27.29,0,0,1,7.95-2.86c11.91-1.9,22.51,5.22,24.68,16s2.59,21.95,2.7,32.91c1.23.17,2.47.33,3.73.47,0-15.92,7.8-40.31-9.56-51.64l-3.13-2,2.9-2.31c7.7-6.12,15.87-13.7,17.32-23.35m5.46,29.95c0-1.39,0-2.77,0-4.16A83.6,83.6,0,0,1,85,85c.6.78,1.16,1.6,1.7,2.44a120.87,120.87,0,0,0,13.13-3.71m-2.77,50.09a21.55,21.55,0,0,0,2.87-10.26c0-12.09-.05-24.18-.09-36.28-3.8,1.27-7.6,2.33-11.44,3.22,6.57,13.24,1.34,29,1.49,42.92,2.36.2,4.75.34,7.17.4M100,47.66H97.44a22.84,22.84,0,0,1,0,6.55C95.82,64.67,87.31,72.71,79.06,79.26a21.39,21.39,0,0,1,3.51,2.94,80.22,80.22,0,0,0,17.24-6.38c0-9.39,0-18.78.16-28.16m0-2.78a34.06,34.06,0,0,0-.08-5.05c-1.62,0-3.27,0-4.94.05a25.65,25.65,0,0,1,1.91,5c1,0,2.07,0,3.11,0m7.68,110a23,23,0,0,0,6-1.25,25.53,25.53,0,0,1-17.92-9.73c-1.56,0-3.1-.07-4.6-.13.81,3.45,2.38,6.35,3.71,9.59a32.43,32.43,0,0,0,12.85,1.52m7.73-133.71a21.8,21.8,0,0,0-7.94-2.5C98,17.47,89.06,21.63,83.07,28.13a27.74,27.74,0,0,1,10.28,9c2,0,3.93-.09,5.89-.09A15.9,15.9,0,0,0,93,29.7a58.43,58.43,0,0,1,22.44-8.52m-2.15,45.13a40.81,40.81,0,0,0,9.81-16.16c-3-.64-6.18-1.15-9.37-1.55a18.56,18.56,0,0,0-.46,4.33c0,3,0,7.94,0,13.38m9.24-31.53c.68-.27,1.37-.5,2.09-.71a18.88,18.88,0,0,0-5.81-10.51A54,54,0,0,0,98,30.06a15.58,15.58,0,0,1,5.1,12c-.47,27.19-.09,54.39-.12,81.58a23.64,23.64,0,0,1-6.64,16c4.21,6.53,10.21,10.68,18.66,11.34a17,17,0,0,1-4.89-12.35V100a121.72,121.72,0,0,0,14.42-3.51,44.22,44.22,0,0,0-7.12-5.39c-2.33.65-4.73,1-7.11,1.48-.11-13.2,0-26.41-.1-39.61a18.66,18.66,0,0,1,12.31-18.16M125,39.06c0-.73,0-1.46-.07-2.17a19.5,19.5,0,0,0-3.68,1.62c1.27.17,2.52.36,3.75.55m-5.62,111.8a36.91,36.91,0,0,0,10.63-10.29,112.41,112.41,0,0,1-16.23,2.73,13.38,13.38,0,0,0,5.6,7.56m-2.69-74.65c9.31-5.11,17.43-12.12,20.64-21.89A88.12,88.12,0,0,0,126.62,51a44.24,44.24,0,0,1-13.35,20.12c0,2.37,0,4.76,0,7Zm21.79-34.55C136.67,27.9,125.76,17.8,111,14.26c-12.18-2.9-25.36-1.92-37.26,1.54A72.1,72.1,0,0,0,53.21,25.9C63.83,31,66.9,39.58,66.82,51.51c0,7.57,0,15.13,0,22.7A43.62,43.62,0,0,0,70.67,72c.08-9.12.45-18.24,1.26-27.35C72.91,28.34,89.52,13,108,15.37c13.92,1.78,21.11,12.28,20.69,24.29,3.51.62,6.81,1.31,9.84,2m-2.9,85.39a33.71,33.71,0,0,0-8.88-28.36,101.15,101.15,0,0,1-13.58,3.53v31a100.39,100.39,0,0,0,22.29-5.11c.07-.34.12-.68.17-1m12-67.78a62.83,62.83,0,0,0-6.89-3.55c-3.55,10.35-12.19,17.89-22.12,23.35,3.06,1.33,6,2.79,8.87,4.36,10.37-6.62,17.48-17.05,20.14-24.16M142.3,42.55c1.46.36,2.85.72,4.16,1.07a19.62,19.62,0,0,0-4.67-4.52,31.82,31.82,0,0,1,.51,3.45m-7.59,111.09A37.09,37.09,0,0,0,150.5,132.7a79.09,79.09,0,0,1-15.37,6.47c-.33.6-.69,1.2-1.06,1.79a41.43,41.43,0,0,1-10.2,11A30.47,30.47,0,0,1,108,158.21a37.4,37.4,0,0,1-12.34-1.07,2.89,2.89,0,0,1-1.85,2.14c-5,2.3-7.68-4.69-9.21-7.8C76.17,144.59,72,133.35,71.28,121.8c-.64-10.68-.3-21.32-.61-32a17.88,17.88,0,0,0-3.78-2.11c.08,13.93.15,27.87,0,41.79a20.22,20.22,0,0,1-5.58,13.73,22,22,0,0,1-5.49,4.14,68.93,68.93,0,0,0,14.51,8.89c20,9.07,45.65,9,64.43-2.62m15.71-33.13c.35-.24.69-.49,1-.73-2.09-20.22-19.89-31.4-38.15-39.34,0,1.66,0,3.22,0,4.65,17.45,7.74,28.43,22.86,26.08,41.44a59.92,59.92,0,0,0,11-6m8.35-52.26a45.4,45.4,0,0,0-8.53-7.33c-3.7,9.31-11.23,18.24-20,24.13A72.65,72.65,0,0,1,138,90.46a52.16,52.16,0,0,0,20.76-22.21m1.69,52.86c.47-.7,1.37-2.33,1-3.19-.76-1.75-2.6-.24-3.51.45-1.91,1.44-3.68,2.95-5.66,4.34-10.55,7.41-25.15,11.69-39.13,13.28a40.78,40.78,0,0,0,.11,4.56c14.86-1.41,29.56-5.46,41.41-13.86a22.92,22.92,0,0,0,5.78-5.58M162,46.05l-.12-.41c-2.78-9.36-10.91-16.92-21.27-19.91q-3-.87-6.06-1.43a32.59,32.59,0,0,1,6.16,10.77,17.88,17.88,0,0,1,1.8,1,21.8,21.8,0,0,1,8,8.61l4.88,1.36a16.22,16.22,0,0,0,6.58,0m5.75,2.58c0-.45-.44-1.22-1.52-.83-2.48.9-8.27,1.88-11.69,1-12.05-3.3-24-6.36-36.49-7.84a15.21,15.21,0,0,0-3.48,5c18.91,2.43,38.59,9.33,49.09,23.69A38.59,38.59,0,0,1,166,73.14c.6-8.29,1.17-16.23,1.8-24.51m-.82-4.28c2.38-1,4.19.52,4.07,2,0,.29,0,.32,0,.61-.77,10.3-1.52,21.38-2.28,30.77-.05.63-.88,1.16-1.91,1.16a2,2,0,0,1-1.87-1.16,34.53,34.53,0,0,0-4.05-6.92,55,55,0,0,1-20.52,21.63c7.51,6.68,12.82,14.87,14.44,24.77,3.25-2.58,5.21-4,8.13-1.93,4,2.8.49,8.8-6.34,13.64-.58.41-1.17.81-1.76,1.2-1.62,9.92-8.33,20.3-18,26.31-19.92,12.33-47,12.43-68.12,2.85a72.69,72.69,0,0,1-19.24-12.77A27.09,27.09,0,0,1,22,129.23a24.3,24.3,0,0,0,5.59-3.52C15.53,115.88,11.1,103.19,11.1,90.49c0-14.59,6.57-29.18,23.44-39.42a16.12,16.12,0,0,0-5.84-8A60.44,60.44,0,0,1,50.84,28.54a34.69,34.69,0,0,0-4.51-1.64A75.82,75.82,0,0,1,72.58,12.62c13-3.78,26.83-4.56,39.29-1.59A44.54,44.54,0,0,1,131.32,21a66.35,66.35,0,0,1,10.22,2.11c12,3.45,20.22,11.94,23.2,21.58.07.22.11.39.15.49a10.94,10.94,0,0,0,2.05-.8"/></g></svg>